# xmcd
#
# Track frame offsets: 
#        150
#        15425
#        29300
#        50400
#        64905
#        81225
#        94990
#        107737
#        125462
#        138362
#
# Disc length: 2045 seconds
#
# Revision: 0
# Processed by: cddbd v1.5.2PL0 Copyright (c) Steve Scherf et al.
# Submitted via: ExactAudioCopy v1.1
#
DISCID=8107fb0a
DTITLE=Various Artist - Bad Boy Country
DYEAR=2003
DGENRE=Country
TTITLE0=Billy Ray Cyrus - Achy Breaky Heart
TTITLE1=John Conlee - Lady Lay Down
TTITLE2=Conway Twitty - Red Neckin' Love Makin' Night
TTITLE3=Steve Wariner - Life's Highway
TTITLE4=Waylon Jennings - Rose In Paradise
TTITLE5=Mark Chesnutt - Brother Jukebox
TTITLE6=Toby Keith - A Little Less Talk and a Lot More Action
TTITLE7=David Lee Murphy - Dust On The Bottle
TTITLE8=Johnny Cash - Wanted Man
TTITLE9=John Anderson and Waylon Jennings - Somewhere Between Ragged and
TTITLE9=Right
EXTD=
EXTT0=
EXTT1=
EXTT2=
EXTT3=
EXTT4=
EXTT5=
EXTT6=
EXTT7=
EXTT8=
EXTT9=
PLAYORDER=
